<?xml version="1.0" encoding="UTF-8"?>
<!-- Generated by jsxcad -->
<!DOCTYPE svg PUBLIC "-//W3C//DTD SVG 1.1 Tiny//EN" "http://www.w3.org/Graphics/SVG/1.1/DTD/svg11-tiny.dtd">
<svg viewBox="-250 -250 500 500" width="500" height="500" xmlns="http://www.w3.org/2000/svg"><path d="M82.06362284061335,-13.771789744847034L-138.74739550838152,33.68775979970458L-140.6902870092099,43.16658305608136zM84.3642839384584,-11.831075795343779L-140.6902870092099,43.16658305608136L-141.20740195584244,45.689463504423784zM-138.74739550838152,33.68775979970458L82.06362284061335,-13.771789744847034L80.1620022617531,-22.771090029349157z" style="fill:rgb(84,220,202)"/><path d="M91.59408410466845,-6.945536783376616L-141.20740195584244,45.689463504423784L-144.1622717233522,52.78870789175018z" style="fill:rgb(85,234,182)"/><path d="M80.1620022617531,-22.771090029349157L90.36282170870109,5.519679050372539L88.40277182342317,-3.532670739290853z" style="fill:rgb(246,167,148)"/><path d="M97.81523354482668,-6.158723723995289L-144.1622717233522,52.78870789175018L-145.197323210314,55.275481125037494z" style="fill:rgb(85,234,182)"/><path d="M-140.6902870092099,43.16658305608136L84.3642839384584,-11.831075795343779L82.06362284061335,-13.771789744847034z" style="fill:rgb(84,220,202)"/><path d="M-147.51127033146324,58.12984896107873L97.81523354482668,-6.158723723995289L-145.197323210314,55.275481125037494z" style="fill:rgb(89,244,159)"/><path d="M-141.20740195584244,45.689463504423784L91.59408410466845,-6.945536783376616L84.3642839384584,-11.831075795343779z" style="fill:rgb(85,234,182)"/><path d="M90.36282170870109,5.519679050372539L80.1620022617531,-22.771090029349157L82.06362284061335,-13.771789744847034z" style="fill:rgb(246,167,148)"/><path d="M-150.64874184828096,62.00008804878846L107.06357508028282,-6.079154590164236L-147.51127033146324,58.12984896107873z" style="fill:rgb(89,244,159)"/><path d="M96.06062938191657,32.53255383134329L-141.20740195584244,45.689463504423784L-147.19622130527495,91.7825601041958z" style="fill:rgb(83,212,212)"/><path d="M-144.1622717233522,52.78870789175018L97.81523354482668,-6.158723723995289L91.59408410466845,-6.945536783376616z" style="fill:rgb(85,234,182)"/><path d="M-141.20740195584244,45.689463504423784L96.06062938191657,32.53255383134329L84.3642839384584,-11.831075795343779z" style="fill:rgb(83,212,212)"/><path d="M101.51486313251468,16.45740886470949L61.910456723380115,-60.617754239273765L90.77572671099878,6.479476411497304z" style="fill:rgb(23,55,145)"/><path d="M111.6231434370799,29.894385980183063L-145.197323210314,55.275481125037494L-150.27431430366374,93.61208772073427z" style="fill:rgb(83,212,212)"/><path d="M-157.4354200126077,65.47131951363227L126.34061660557202,-7.643409414888873L-150.64874184828096,62.00008804878846z" style="fill:rgb(93,250,135)"/><path d="M97.81523354482668,-6.158723723995289L-147.51127033146324,58.12984896107873L107.06357508028282,-6.079154590164236z" style="fill:rgb(89,244,159)"/><path d="M-145.197323210314,55.275481125037494L111.6231434370799,29.894385980183063L97.81523354482668,-6.158723723995289z" style="fill:rgb(83,212,212)"/><path d="M179.4616833177128,-30.166281464419974L156.21733829152515,-85.91721906257615L179.8391550742358,-15.802231841590034z" style="fill:rgb(246,148,167)"/><path d="M118.20618352974799,21.131398289865633L72.9203702235217,-50.99648412366331L101.51486313251468,16.45740886470949z" style="fill:rgb(57,36,182)"/><path d="M107.06357508028282,-6.079154590164236L-150.64874184828096,62.00008804878846L126.34061660557202,-7.643409414888873z" style="fill:rgb(89,244,159)"/><path d="M84.3642839384584,-11.831075795343779L96.06062938191657,32.53255383134329L92.77845442635495,-4.151617660111764zM130.27449764824973,24.535958760060407L-150.64874184828096,62.00008804878846L-155.0191057256174,94.0018249669588zM64.24103079744991,-88.34370698063282L72.9203702235217,-50.99648412366331L76.62482676801599,-101.7502493190448z" style="fill:rgb(83,212,212)"/><path d="M131.97635460408037,25.037948671189536L-160.73957970384987,94.30651713866838L-150.52753070743714,93.76259813207845z" style="fill:rgb(155,4,143)"/><path d="M61.910456723380115,-60.617754239273765L64.24103079744991,-88.34370698063282L58.964063976637384,-73.84597907433944zM76.62482676801599,-101.7502493190448L90.35950575034401,-46.870947539765886L94.03471862285248,-111.98998846733315zM96.06062938191657,32.53255383134329L109.70290103894591,0.36615347485252253L92.77845442635495,-4.151617660111764z" style="fill:rgb(83,212,212)"/><path d="M179.8391550742358,-15.802231841590034L147.5695957799458,-70.79456300241732L171.96252854499028,-0.951957938474482z" style="fill:rgb(231,109,199)"/><path d="M61.910456723380115,-60.617754239273765L101.51486313251468,16.45740886470949L72.9203702235217,-50.99648412366331z" style="fill:rgb(23,55,145)"/><path d="M111.21001309796546,-49.21001046531159L118.20618352974799,21.131398289865633L137.9545406646033,19.453413910685345z" style="fill:rgb(102,32,209)"/><path d="M94.03471862285248,-111.98998846733315L111.21001309796546,-49.21001046531159L113.7405862485727,-117.47990453515115zM-150.64874184828096,62.00008804878846L130.27449764824973,24.535958760060407L126.34061660557202,-7.643409414888873z" style="fill:rgb(83,212,212)"/><path d="M156.21733829152515,-85.91721906257615L179.4616833177128,-30.166281464419974L156.1429416390446,-100.2477423000807z" style="fill:rgb(246,148,167)"/><path d="M171.96252854499028,-0.951957938474482L131.57948939213722,-57.715912061923326L157.08671218952105,11.605195634497084z" style="fill:rgb(197,72,218)"/><path d="M126.34061660557202,-7.643409414888873L135.42498723103887,12.959068650149337L126.64468407807317,-9.583309732195616z" style="fill:rgb(247,158,158)"/><path d="M131.57948939213722,-57.715912061923326L137.9545406646033,19.453413910685345L157.08671218952105,11.605195634497084z" style="fill:rgb(152,45,222)"/><path d="M126.34061660557202,-7.643409414888873L-157.4354200126077,65.47131951363227L124.31199029748686,-5.240643369123049z" style="fill:rgb(93,250,135)"/><path d="M127.75753621972335,23.47065015610632L-157.4354200126077,65.47131951363227L-161.49666808785966,94.01717182140543zM97.81523354482668,-6.158723723995289L111.6231434370799,29.894385980183063L108.15055376565577,-3.424707308764858zM113.7405862485727,-117.47990453515115L131.57948939213722,-57.715912061923326L132.6617225473978,-117.28850345954966zM64.24103079744991,-88.34370698063282L61.910456723380115,-60.617754239273765L72.9203702235217,-50.99648412366331zM109.70290103894591,0.36615347485252253L132.91944960723467,23.55486029314761L129.79066859732163,-1.5063617123144497z" style="fill:rgb(83,212,212)"/><path d="M107.06357508028282,-6.079154590164236L126.34061660557202,-7.643409414888873L126.64468407807317,-9.583309732195616z" style="fill:rgb(89,244,159)"/><path d="M109.70290103894591,0.36615347485252253L96.06062938191657,32.53255383134329L112.6650920801575,28.488211737064802zM108.15055376565577,-3.424707308764858L132.04808108760616,24.925151716670943L128.3000219370961,-5.333431960513702z" style="fill:rgb(83,212,212)"/><path d="M72.9203702235217,-50.99648412366331L118.20618352974799,21.131398289865633L90.35950575034401,-46.870947539765886z" style="fill:rgb(57,36,182)"/><path d="M132.6617225473978,-117.28850345954966L147.5695957799458,-70.79456300241732L147.6965289561393,-111.28228957847872zM132.91944960723467,23.55486029314761L109.70290103894591,0.36615347485252253L112.6650920801575,28.488211737064802zM-169.20480740371096,91.07127358596617L121.20550165017617,-6.6948470135452895L-165.365458296174,65.38130919587722zM76.62482676801599,-101.7502493190448L72.9203702235217,-50.99648412366331L90.35950575034401,-46.870947539765886z" style="fill:rgb(83,212,212)"/><path d="M135.42498723103887,12.959068650149337L130.27449764824973,24.535958760060407L134.41679047046105,21.20020849816013z" style="fill:rgb(247,158,158)"/><path d="M147.5695957799458,-70.79456300241732L179.8391550742358,-15.802231841590034L156.21733829152515,-85.91721906257615z" style="fill:rgb(231,109,199)"/><path d="M135.42498723103887,12.959068650149337L126.34061660557202,-7.643409414888873L130.27449764824973,24.535958760060407z" style="fill:rgb(247,158,158)"/><path d="M147.6965289561393,-111.28228957847872L156.21733829152515,-85.91721906257615L156.1429416390446,-100.2477423000807z" style="fill:rgb(83,212,212)"/><path d="M118.20618352974799,21.131398289865633L111.21001309796546,-49.21001046531159L90.35950575034401,-46.870947539765886z" style="fill:rgb(102,32,209)"/><path d="M132.04808108760616,24.925151716670943L108.15055376565577,-3.424707308764858L111.6231434370799,29.894385980183063zM-157.4354200126077,65.47131951363227L127.75753621972335,23.47065015610632L124.31199029748686,-5.240643369123049zM94.03471862285248,-111.98998846733315L90.35950575034401,-46.870947539765886L111.21001309796546,-49.21001046531159z" style="fill:rgb(83,212,212)"/><path d="M131.57948939213722,-57.715912061923326L171.96252854499028,-0.951957938474482L147.5695957799458,-70.79456300241732z" style="fill:rgb(197,72,218)"/><path d="M113.7405862485727,-117.47990453515115L111.21001309796546,-49.21001046531159L131.57948939213722,-57.715912061923326z" style="fill:rgb(83,212,212)"/><path d="M137.9545406646033,19.453413910685345L131.57948939213722,-57.715912061923326L111.21001309796546,-49.21001046531159z" style="fill:rgb(152,45,222)"/><path d="M147.6965289561393,-111.28228957847872L147.5695957799458,-70.79456300241732L156.21733829152515,-85.91721906257615zM132.6617225473978,-117.28850345954966L131.57948939213722,-57.715912061923326L147.5695957799458,-70.79456300241732z" style="fill:rgb(83,212,212)"/><path d="M-160.73957970384987,94.30651713866838L131.97635460408037,25.037948671189536L128.1033270529457,23.895538300780743z" style="fill:rgb(155,4,143)"/><path d="M-160.73957970384987,94.30651713866838L122.85047556426254,17.44106387982811L-172.2221913276145,89.91808025028544z" style="fill:rgb(148,8,167)"/><path d="M134.41679047046105,21.20020849816013L130.27449764824973,24.535958760060407L131.97635460408037,25.037948671189536zM124.31199029748686,-5.240643369123049L130.27449764824973,24.535958760060407L126.34061660557202,-7.643409414888873z" style="fill:rgb(247,158,158)"/><path d="M119.82721783696263,11.918802900733814L-174.1766413611032,61.54191193830301L-177.96282280321398,85.51105920549671z" style="fill:rgb(83,212,212)"/><path d="M122.85047556426254,17.44106387982811L-160.73957970384987,94.30651713866838L128.1033270529457,23.895538300780743z" style="fill:rgb(148,8,167)"/><path d="M121.20550165017617,-6.6948470135452895L-169.20480740371096,91.07127358596617L124.23254563064641,19.139292909491235zM-187.43363739566198,77.1686312767717L112.07487527820176,-21.655157941693883L-183.53725916362754,53.92166943930582z" style="fill:rgb(83,212,212)"/><path d="M130.27449764824973,24.535958760060407L124.31199029748686,-5.240643369123049L127.75753621972335,23.47065015610632z" style="fill:rgb(247,158,158)"/><path d="M-172.2221913276145,89.91808025028544L116.35016776963927,5.567653894366761L-184.55439268078413,80.45078554764302z" style="fill:rgb(140,16,189)"/><path d="M124.23254563064641,19.139292909491235L124.31199029748686,-5.240643369123049L121.20550165017617,-6.6948470135452895zM130.27449764824973,24.535958760060407L127.75753621972335,23.47065015610632L128.1033270529457,23.895538300780743z" style="fill:rgb(247,158,158)"/><path d="M-174.1766413611032,61.54191193830301L119.82721783696263,11.918802900733814L117.08612589068073,-12.169773832959315z" style="fill:rgb(83,212,212)"/><path d="M124.31199029748686,-5.240643369123049L124.23254563064641,19.139292909491235L127.75753621972335,23.47065015610632z" style="fill:rgb(247,158,158)"/><path d="M-197.21251279583143,66.02133673058042L106.35214276885691,-34.931010373567084L-193.05450515958853,42.67855619899557z" style="fill:rgb(83,212,212)"/><path d="M116.35016776963927,5.567653894366761L-172.2221913276145,89.91808025028544L122.85047556426254,17.44106387982811z" style="fill:rgb(140,16,189)"/><path d="M-184.55439268078413,80.45078554764302L108.82487092734459,-11.536812194846277L-197.21251279583143,66.02133673058042z" style="fill:rgb(131,29,208)"/><path d="M119.82721783696263,11.918802900733814L121.20550165017617,-6.6948470135452895L117.08612589068073,-12.169773832959315zM121.20550165017617,-6.6948470135452895L119.82721783696263,11.918802900733814L124.23254563064641,19.139292909491235z" style="fill:rgb(247,158,158)"/><path d="M112.07487527820176,-21.655157941693883L-187.43363739566198,77.1686312767717L114.64039412409903,1.6814603336843075z" style="fill:rgb(83,212,212)"/><path d="M124.23254563064641,19.139292909491235L119.82721783696263,11.918802900733814L122.85047556426254,17.44106387982811z" style="fill:rgb(247,158,158)"/><path d="M108.82487092734459,-11.536812194846277L-184.55439268078413,80.45078554764302L116.35016776963927,5.567653894366761z" style="fill:rgb(131,29,208)"/><path d="M114.64039412409903,1.6814603336843075L117.08612589068073,-12.169773832959315L112.07487527820176,-21.655157941693883zM117.08612589068073,-12.169773832959315L114.64039412409903,1.6814603336843075L119.82721783696263,11.918802900733814z" style="fill:rgb(247,158,158)"/><path d="M106.35214276885691,-34.931010373567084L-197.21251279583143,66.02133673058042L108.82487092734459,-11.536812194846277z" style="fill:rgb(83,212,212)"/><path d="M119.82721783696263,11.918802900733814L114.64039412409903,1.6814603336843075L116.35016776963927,5.567653894366761zM108.82487092734459,-11.536812194846277L112.07487527820176,-21.655157941693883L106.35214276885691,-34.931010373567084zM112.07487527820176,-21.655157941693883L108.82487092734459,-11.536812194846277L114.64039412409903,1.6814603336843075z" style="fill:rgb(247,158,158)"/></svg>
