<?xml version="1.0" encoding="UTF-8"?>
<!-- Generated by jsxcad -->
<!DOCTYPE svg PUBLIC "-//W3C//DTD SVG 1.1 Tiny//EN" "http://www.w3.org/Graphics/SVG/1.1/DTD/svg11-tiny.dtd">
<svg viewBox="-250 -250 500 500" width="500" height="500" xmlns="http://www.w3.org/2000/svg"><path d="M-47.7246924677065,14.513554271557464L-148.60754628113506,37.72584739114532L-149.22143264376433,40.581366082185475z" style="fill:rgb(84,220,202)"/><path d="M-48.338718852013145,16.70160814541165L-149.22143264376433,40.581366082185475L-150.18432886511195,42.807303068123716z" style="fill:rgb(85,234,182)"/><path d="M-151.05143986599717,43.82791715843138L-48.338718852013145,16.70160814541165L-150.18432886511195,42.807303068123716z" style="fill:rgb(89,244,159)"/><path d="M-39.21749704729841,26.151884074825887L-40.09893847760908,33.175118679166594L-39.7609298522855,31.873196837489655z" style="fill:rgb(247,158,158)"/><path d="M-148.60754628113506,37.72584739114532L-47.7246924677065,14.513554271557464L-47.42332517021985,11.668269112120345z" style="fill:rgb(84,220,202)"/><path d="M-152.70698945160382,65.84797460621076L-47.7246924677065,14.513554271557464L-149.22143264376433,40.581366082185475z" style="fill:rgb(83,212,212)"/><path d="M-149.22143264376433,40.581366082185475L-48.338718852013145,16.70160814541165L-47.7246924677065,14.513554271557464z" style="fill:rgb(85,234,182)"/><path d="M-39.21749704729841,26.151884074825887L-47.94737827976212,19.43917894531869L-40.09893847760908,33.175118679166594zM-47.7246924677065,14.513554271557464L-39.21749704729841,26.151884074825887L-47.42332517021985,11.668269112120345zM-39.21749704729841,26.151884074825887L-47.7246924677065,14.513554271557464L-47.94737827976212,19.43917894531869z" style="fill:rgb(247,158,158)"/><path d="M-48.338718852013145,16.70160814541165L-151.05143986599717,43.82791715843138L-48.953423527011985,17.678447434913135zM-151.46377222747435,44.31323764883579L58.64054539772596,-9.878650541013762L-151.05143986599717,43.82791715843138z" style="fill:rgb(89,244,159)"/><path d="M-49.38079891303241,39.505920279899435L-150.18432886511195,42.807303068123716L-153.33777873943717,65.56666482888531z" style="fill:rgb(83,212,212)"/><path d="M-153.01473598905807,45.03355983313697L58.48190703340764,-9.437839536972433L-151.46377222747435,44.31323764883579z" style="fill:rgb(93,250,135)"/><path d="M-150.18432886511195,42.807303068123716L-49.38079891303241,39.505920279899435L-48.338718852013145,16.70160814541165z" style="fill:rgb(83,212,212)"/><path d="M-48.338718852013145,16.70160814541165L-47.94737827976212,19.43917894531869L-47.7246924677065,14.513554271557464zM-47.94737827976212,19.43917894531869L-48.338718852013145,16.70160814541165L-48.42557255021126,18.60226737104833zM-48.42557255021126,18.60226737104833L-48.338718852013145,16.70160814541165L-48.953423527011985,17.678447434913135z" style="fill:rgb(247,158,158)"/><path d="M-154.36557295005397,65.10831838857449L58.48190703340764,-9.437839536972433L-151.46377222747435,44.31323764883579z" style="fill:rgb(83,212,212)"/><path d="M63.419091427512484,13.708829964971994L-151.2680483879068,66.48967183782823L-147.7618805570473,66.52186723836546z" style="fill:rgb(155,4,143)"/><path d="M-47.7246924677065,14.513554271557464L-152.70698945160382,65.84797460621076L-48.86918744765095,39.82882348002414zM58.817371768322296,10.373170303823445L-153.01473598905807,45.03355983313697L-155.7234481147407,64.26091125147538z" style="fill:rgb(83,212,212)"/><path d="M58.64054539772596,-9.878650541013762L-151.46377222747435,44.31323764883579L58.48190703340764,-9.437839536972433z" style="fill:rgb(89,244,159)"/><path d="M-151.2680483879068,66.48967183782823L59.22136717526657,10.982935395950248L-155.10339762273824,64.779278599992z" style="fill:rgb(148,8,167)"/><path d="M57.7621407289949,8.780459557027662L-154.78077066120372,44.93112021059148L-157.34267982934438,62.90722650569017z" style="fill:rgb(83,212,212)"/><path d="M58.48190703340764,-9.437839536972433L-153.01473598905807,45.03355983313697L57.738900448748865,-8.906877644436316z" style="fill:rgb(93,250,135)"/><path d="M-161.13297156735402,58.97691068330732L54.30575897938215,-12.476570898208868L-158.68552671977434,42.267615192041255zM56.548949847765215,6.9253314481912565L-156.6956072562238,44.00007564272545L-159.19772104762896,61.327212356664404z" style="fill:rgb(83,212,212)"/><path d="M-155.10339762273824,64.779278599992L56.6030815175389,7.031036532368141L-159.12062106410772,61.420847999766394z" style="fill:rgb(140,16,189)"/><path d="M60.65854996106831,12.38391993540621L-47.94737827976212,19.43917894531869L-48.86918744765095,39.82882348002414z" style="fill:rgb(83,212,212)"/><path d="M-151.2680483879068,66.48967183782823L63.419091427512484,13.708829964971994L61.521146052340164,13.224789227445708z" style="fill:rgb(155,4,143)"/><path d="M-153.01473598905807,45.03355983313697L58.817371768322296,10.373170303823445L57.738900448748865,-8.906877644436316zM60.28032151889881,12.015218323850656L-48.42557255021126,18.60226737104833L-49.38079891303241,39.505920279899435z" style="fill:rgb(83,212,212)"/><path d="M58.48190703340764,-9.437839536972433L66.05799571282199,6.456778845119858L58.64054539772596,-9.878650541013762z" style="fill:rgb(247,158,158)"/><path d="M-47.94737827976212,19.43917894531869L60.65854996106831,12.38391993540621L59.48361905557141,-8.021949126437892zM53.767494398506244,1.4941024176131585L-160.67208341365227,39.79427585956326L-163.1579316101546,56.51765947187288zM58.48190703340764,-9.437839536972433L-154.36557295005397,65.10831838857449L59.66393801040741,11.414359331822714zM-48.42557255021126,18.60226737104833L60.28032151889881,12.015218323850656L59.082898241980445,-8.904455723328338zM-154.78077066120372,44.93112021059148L57.7621407289949,8.780459557027662L56.77051178035642,-9.243601670972815z" style="fill:rgb(83,212,212)"/><path d="M66.05799571282199,6.456778845119858L59.66393801040741,11.414359331822714L65.7773175005333,9.568215925052911z" style="fill:rgb(247,158,158)"/><path d="M-159.12062106410772,61.420847999766394L53.767494398506244,1.4941024176131585L-163.1579316101546,56.51765947187288z" style="fill:rgb(131,29,208)"/><path d="M59.22136717526657,10.982935395950248L-151.2680483879068,66.48967183782823L61.521146052340164,13.224789227445708z" style="fill:rgb(148,8,167)"/><path d="M-156.6956072562238,44.00007564272545L56.548949847765215,6.9253314481912565L55.61165861515474,-10.445823669375592z" style="fill:rgb(83,212,212)"/><path d="M66.05799571282199,6.456778845119858L58.48190703340764,-9.437839536972433L59.66393801040741,11.414359331822714zM65.7773175005333,9.568215925052911L59.66393801040741,11.414359331822714L64.85195099661331,12.46000291868502zM64.85195099661331,12.46000291868502L61.521146052340164,13.224789227445708L63.419091427512484,13.708829964971994z" style="fill:rgb(247,158,158)"/><path d="M56.6030815175389,7.031036532368141L-155.10339762273824,64.779278599992L59.22136717526657,10.982935395950248z" style="fill:rgb(140,16,189)"/><path d="M-160.67208341365227,39.79427585956326L53.767494398506244,1.4941024176131585L52.903276450046945,-15.264033633341331z" style="fill:rgb(83,212,212)"/><path d="M-39.51323716590488,34.20018470920586L159.6312966315543,-76.24222942692869L-68.04634353966435,-15.737015834973z" style="fill:rgb(127,37,217)"/><path d="M57.738900448748865,-8.906877644436316L59.66393801040741,11.414359331822714L58.48190703340764,-9.437839536972433z" style="fill:rgb(247,158,158)"/><path d="M159.6312966315543,-76.24222942692869L-39.51323716590488,34.20018470920586L178.37748373227953,-20.57635941689307z" style="fill:rgb(127,37,217)"/><path d="M54.30575897938215,-12.476570898208868L-161.13297156735402,58.97691068330732L55.18996272827161,4.2716975761910385z" style="fill:rgb(83,212,212)"/><path d="M64.85195099661331,12.46000291868502L59.66393801040741,11.414359331822714L61.521146052340164,13.224789227445708zM57.7621407289949,8.780459557027662L57.738900448748865,-8.906877644436316L56.77051178035642,-9.243601670972815z" style="fill:rgb(247,158,158)"/><path d="M53.767494398506244,1.4941024176131585L-159.12062106410772,61.420847999766394L56.6030815175389,7.031036532368141z" style="fill:rgb(131,29,208)"/><path d="M157.003740798882,-92.12421627443645L178.37748373227953,-20.57635941689307L175.585294387859,-36.55114527754722zM59.66393801040741,11.414359331822714L57.738900448748865,-8.906877644436316L58.817371768322296,10.373170303823445zM56.548949847765215,6.9253314481912565L56.77051178035642,-9.243601670972815L55.61165861515474,-10.445823669375592zM57.738900448748865,-8.906877644436316L57.7621407289949,8.780459557027662L58.817371768322296,10.373170303823445z" style="fill:rgb(247,158,158)"/><path d="M159.6312966315543,-76.24222942692869L-66.98597387890966,-31.715560920306974L-68.04634353966435,-15.737015834973z" style="fill:rgb(83,212,212)"/><path d="M55.18996272827161,4.2716975761910385L55.61165861515474,-10.445823669375592L54.30575897938215,-12.476570898208868zM56.77051178035642,-9.243601670972815L56.548949847765215,6.9253314481912565L57.7621407289949,8.780459557027662zM59.66393801040741,11.414359331822714L58.817371768322296,10.373170303823445L59.22136717526657,10.982935395950248zM53.767494398506244,1.4941024176131585L54.30575897938215,-12.476570898208868L52.903276450046945,-15.264033633341331zM55.61165861515474,-10.445823669375592L55.18996272827161,4.2716975761910385L56.548949847765215,6.9253314481912565zM57.7621407289949,8.780459557027662L56.548949847765215,6.9253314481912565L56.6030815175389,7.031036532368141zM54.30575897938215,-12.476570898208868L53.767494398506244,1.4941024176131585L55.18996272827161,4.2716975761910385z" style="fill:rgb(247,158,158)"/><path d="M-66.98597387890966,-31.715560920306974L159.6312966315543,-76.24222942692869L157.003740798882,-92.12421627443645z" style="fill:rgb(83,212,212)"/><path d="M178.37748373227953,-20.57635941689307L157.003740798882,-92.12421627443645L159.6312966315543,-76.24222942692869z" style="fill:rgb(247,158,158)"/></svg>
