<?xml version="1.0" encoding="UTF-8"?>
<!-- Generated by jsxcad -->
<!DOCTYPE svg PUBLIC "-//W3C//DTD SVG 1.1 Tiny//EN" "http://www.w3.org/Graphics/SVG/1.1/DTD/svg11-tiny.dtd">
<svg viewBox="-250 -250 500 500" width="500" height="500" xmlns="http://www.w3.org/2000/svg"><path d="M177.96596433934303,-29.112984401696746L-133.54862697089035,45.849831594469215L-134.373320865879,50.0462255176993z" style="fill:rgb(84,220,202)"/><path d="M178.3003340435235,-25.999404545525856L-134.373320865879,50.0462255176993L-135.70026261315815,53.34314055701506z" style="fill:rgb(85,234,182)"/><path d="M-137.48789543395813,55.60381345179725L178.3003340435235,-25.999404545525856L-135.70026261315815,53.34314055701506z" style="fill:rgb(89,244,159)"/><path d="M-139.67632037748336,56.725121532623454L178.29479573890583,-24.04290438849455L-137.48789543395813,55.60381345179725z" style="fill:rgb(93,250,135)"/><path d="M186.5998071450742,10.62523378261216L-136.93727840606138,88.41864075539118L-131.97033608523577,88.20833742667523z" style="fill:rgb(155,4,143)"/><path d="M-133.54862697089035,45.849831594469215L177.96596433934303,-29.112984401696746L177.309530088964,-33.250776084383865z" style="fill:rgb(84,220,202)"/><path d="M184.5924898802141,8.56876410027424L-134.373320865879,50.0462255176993L-138.99403494643343,87.56819679923262zM184.27276027292447,8.003409773416127L-135.70026261315815,53.34314055701506L-139.8974543276319,87.19464297315798z" style="fill:rgb(83,212,212)"/><path d="M-134.373320865879,50.0462255176993L178.3003340435235,-25.999404545525856L177.96596433934303,-29.112984401696746z" style="fill:rgb(85,234,182)"/><path d="M176.567829059714,-23.977018470112135L-144.930872629337,55.34197992016302L-145.1766726569242,57.201547952775634zM183.75076556283548,7.080404984315634L-137.48789543395813,55.60381345179725L-141.37178557443252,86.58502271429053zM175.03325945516235,-28.525415820921946L-147.79873781107514,52.85089435785949L-147.86226092973067,53.3210758643229z" style="fill:rgb(83,212,212)"/><path d="M178.3003340435235,-25.999404545525856L-137.48789543395813,55.60381345179725L178.29479573890583,-24.04290438849455z" style="fill:rgb(89,244,159)"/><path d="M182.98251087471903,5.483824811969085L-139.67632037748336,56.725121532623454L-143.32664279833398,85.4162830792795z" style="fill:rgb(83,212,212)"/><path d="M-143.50786071035628,59.61286119082327L173.42340457457186,-33.29696783774169L-150.67773088985578,49.25292498834497z" style="fill:rgb(127,37,217)"/><path d="M-134.373320865879,50.0462255176993L184.5924898802141,8.56876410027424L177.96596433934303,-29.112984401696746z" style="fill:rgb(83,212,212)"/><path d="M-136.93727840606138,88.41864075539118L183.37524323429258,6.416395111437711L-142.4319549573358,86.14665408608256z" style="fill:rgb(148,8,167)"/><path d="M177.96596433934303,-29.112984401696746L184.9726103343664,-10.292643664863292L177.309530088964,-33.250776084383865z" style="fill:rgb(247,158,158)"/><path d="M181.95449007141437,3.0426415473745636L-142.1882564962127,56.643823153784076L-145.6675161180969,83.50535132153398z" style="fill:rgb(83,212,212)"/><path d="M178.29479573890583,-24.04290438849455L-139.67632037748336,56.725121532623454L177.94333422760252,-23.33863114532284z" style="fill:rgb(93,250,135)"/><path d="M-135.70026261315815,53.34314055701506L184.27276027292447,8.003409773416127L178.3003340435235,-25.999404545525856zM181.5751146715098,2.1417615934109113L-143.50786071035628,59.61286119082327L-146.53095302051403,82.80049308531069z" style="fill:rgb(83,212,212)"/><path d="M-142.4319549573358,86.14665408608256L181.5751146715098,2.1417615934109113L-146.53095302051403,82.80049308531069z" style="fill:rgb(140,16,189)"/><path d="M-137.48789543395813,55.60381345179725L183.75076556283548,7.080404984315634L178.29479573890583,-24.04290438849455z" style="fill:rgb(83,212,212)"/><path d="M184.9726103343664,-10.292643664863292L184.5924898802141,8.56876410027424L186.33858356277173,-1.930377705428116z" style="fill:rgb(247,158,158)"/><path d="M-136.93727840606138,88.41864075539118L186.5998071450742,10.62523378261216L185.32002367470628,9.855215536831432z" style="fill:rgb(155,4,143)"/><path d="M-139.67632037748336,56.725121532623454L182.98251087471903,5.483824811969085L177.94333422760252,-23.33863114532284z" style="fill:rgb(83,212,212)"/><path d="M184.9726103343664,-10.292643664863292L177.96596433934303,-29.112984401696746L184.5924898802141,8.56876410027424zM186.33858356277173,-1.930377705428116L184.5924898802141,8.56876410027424L187.0934991089997,4.530862617681032z" style="fill:rgb(247,158,158)"/><path d="M-144.930872629337,55.34197992016302L176.567829059714,-23.977018470112135L176.2442714959986,-25.84090974937627zM-142.1882564962127,56.643823153784076L181.95449007141437,3.0426415473745636L177.25294097872256,-23.93754618922177z" style="fill:rgb(83,212,212)"/><path d="M173.42340457457186,-33.29696783774169L-143.50786071035628,59.61286119082327L177.5208989746461,-21.152149976842324z" style="fill:rgb(127,37,217)"/><path d="M183.37524323429258,6.416395111437711L-136.93727840606138,88.41864075539118L185.32002367470628,9.855215536831432z" style="fill:rgb(148,8,167)"/><path d="M-147.79873781107514,52.85089435785949L175.03325945516235,-28.525415820921946L174.95183835130078,-28.99644801355455zM-143.50786071035628,59.61286119082327L181.5751146715098,2.1417615934109113L177.5208989746461,-21.152149976842324z" style="fill:rgb(83,212,212)"/><path d="M187.0934991089997,4.530862617681032L184.5924898802141,8.56876410027424L187.18980761650667,8.795763594312563zM178.3003340435235,-25.999404545525856L184.5924898802141,8.56876410027424L177.96596433934303,-29.112984401696746zM178.29479573890583,-24.04290438849455L184.27276027292447,8.003409773416127L178.3003340435235,-25.999404545525856zM187.18980761650667,8.795763594312563L185.32002367470628,9.855215536831432L186.5998071450742,10.62523378261216z" style="fill:rgb(247,158,158)"/><path d="M181.5751146715098,2.1417615934109113L-142.4319549573358,86.14665408608256L183.37524323429258,6.416395111437711z" style="fill:rgb(140,16,189)"/><path d="M177.94333422760252,-23.33863114532284L183.75076556283548,7.080404984315634L178.29479573890583,-24.04290438849455zM187.18980761650667,8.795763594312563L184.5924898802141,8.56876410027424L185.32002367470628,9.855215536831432zM177.5208989746461,-21.152149976842324L177.25294097872256,-23.93754618922177L176.93007355578416,-24.5467980718142zM184.5924898802141,8.56876410027424L178.3003340435235,-25.999404545525856L184.27276027292447,8.003409773416127zM176.93007355578416,-24.5467980718142L176.567829059714,-23.977018470112135L177.5208989746461,-21.152149976842324zM176.567829059714,-23.977018470112135L176.93007355578416,-24.5467980718142L176.2442714959986,-25.84090974937627zM184.27276027292447,8.003409773416127L178.29479573890583,-24.04290438849455L183.75076556283548,7.080404984315634zM181.95449007141437,3.0426415473745636L177.94333422760252,-23.33863114532284L177.25294097872256,-23.93754618922177zM176.2442714959986,-25.84090974937627L175.03325945516235,-28.525415820921946L176.567829059714,-23.977018470112135zM175.03325945516235,-28.525415820921946L176.2442714959986,-25.84090974937627L174.95183835130078,-28.99644801355455zM177.25294097872256,-23.93754618922177L177.5208989746461,-21.152149976842324L181.95449007141437,3.0426415473745636zM183.75076556283548,7.080404984315634L177.94333422760252,-23.33863114532284L182.98251087471903,5.483824811969085zM175.03325945516235,-28.525415820921946L174.95183835130078,-28.99644801355455L173.42340457457186,-33.29696783774169zM177.94333422760252,-23.33863114532284L181.95449007141437,3.0426415473745636L182.98251087471903,5.483824811969085zM183.75076556283548,7.080404984315634L182.98251087471903,5.483824811969085L183.37524323429258,6.416395111437711zM181.95449007141437,3.0426415473745636L177.5208989746461,-21.152149976842324L181.5751146715098,2.1417615934109113z" style="fill:rgb(247,158,158)"/><path d="M-146.7699117314781,84.63334947165146L152.27384357152093,-82.79502286119157L-199.10273811164953,11.295122322810846zM152.27384357152093,-82.79502286119157L-146.7699117314781,84.63334947165146L181.89617771485624,3.9864642486639092z" style="fill:rgb(127,37,217)"/><path d="M148.31270410427632,-107.72409009352852L181.89617771485624,3.9864642486639092L177.5208989746461,-21.152149976842324z" style="fill:rgb(247,158,158)"/><path d="M152.27384357152093,-82.79502286119157L-194.34650719538212,-13.845232583950473L-199.10273811164953,11.295122322810846zM-194.34650719538212,-13.845232583950473L152.27384357152093,-82.79502286119157L148.31270410427632,-107.72409009352852z" style="fill:rgb(83,212,212)"/><path d="M181.89617771485624,3.9864642486639092L148.31270410427632,-107.72409009352852L152.27384357152093,-82.79502286119157z" style="fill:rgb(247,158,158)"/></svg>
