<?xml version="1.0" encoding="UTF-8"?>
<!-- Generated by jsxcad -->
<!DOCTYPE svg PUBLIC "-//W3C//DTD SVG 1.1 Tiny//EN" "http://www.w3.org/Graphics/SVG/1.1/DTD/svg11-tiny.dtd">
<svg viewBox="-250 -250 500 500" width="500" height="500" xmlns="http://www.w3.org/2000/svg"><path d="M78.44802524650682,-5.281844921880032L-147.9107985648638,48.62323767796089L-148.70247991808284,52.3637206670023z" style="fill:rgb(84,220,202)"/><path d="M78.81716363531787,-2.5986603494507543L-148.70247991808284,52.3637206670023L-149.9476539788724,55.302591095042345z" style="fill:rgb(85,234,182)"/><path d="M-151.21568352634168,56.84430042914664L78.81716363531787,-2.5986603494507543L-149.9476539788724,55.302591095042345zM-151.6060835210777,57.31896246182428L78.81028773353502,-1.3040635666344562L-151.21568352634168,56.84430042914664z" style="fill:rgb(89,244,159)"/><path d="M-153.62106352873363,58.32251567803386L79.36321771644234,-1.0455737009582668L-151.6060835210777,57.31896246182428z" style="fill:rgb(93,250,135)"/><path d="M-154.05247833873798,85.31711579515192L78.81716363531787,-2.5986603494507543L-149.9476539788724,55.302591095042345z" style="fill:rgb(83,212,212)"/><path d="M-147.9107985648638,48.62323767796089L78.44802524650682,-5.281844921880032L77.71995113250257,-8.841499288628226z" style="fill:rgb(84,220,202)"/><path d="M-155.39524438633845,84.77266875887273L79.36321771644234,-1.0455737009582668L-151.6060835210777,57.31896246182428z" style="fill:rgb(83,212,212)"/><path d="M107.52852200884696,23.944712855955625L-148.77124537743953,86.3175428574926L-146.79839086411718,86.24581471390697z" style="fill:rgb(155,4,143)"/><path d="M-148.70247991808284,52.3637206670023L78.81716363531787,-2.5986603494507543L78.44802524650682,-5.281844921880032z" style="fill:rgb(85,234,182)"/><path d="M81.97621093989744,27.902807630680954L-148.70247991808284,52.3637206670023L-153.22921025680964,85.65093044203923z" style="fill:rgb(83,212,212)"/><path d="M77.71995113250257,-8.841499288628226L87.026192455607,14.341388575375422L86.27419520676139,10.762348965989034z" style="fill:rgb(246,167,148)"/><path d="M-157.17157908713222,83.73293289521243L81.06090635462901,-0.9503852823376799L-153.62106352873363,58.32251567803386z" style="fill:rgb(83,212,212)"/><path d="M111.09142867571619,22.632938987666318L-151.35360348198427,86.41142952912514L-148.77124537743953,86.3175428574926z" style="fill:rgb(155,4,143)"/><path d="M78.44802524650682,-5.281844921880032L87.75555564777625,17.812667186408845L87.026192455607,14.341388575375422z" style="fill:rgb(246,167,148)"/><path d="M78.81716363531787,-2.5986603494507543L-151.21568352634168,56.84430042914664L78.81028773353502,-1.3040635666344562zM78.81028773353502,-1.3040635666344562L-151.6060835210777,57.31896246182428L79.36321771644234,-1.0455737009582668z" style="fill:rgb(89,244,159)"/><path d="M78.81716363531787,-2.5986603494507543L87.78483469125807,17.95200999526587L87.75555564777625,17.812667186408845zM87.026192455607,14.341388575375422L77.71995113250257,-8.841499288628226L78.44802524650682,-5.281844921880032z" style="fill:rgb(246,167,148)"/><path d="M-148.70247991808284,52.3637206670023L81.97621093989744,27.902807630680954L78.44802524650682,-5.281844921880032z" style="fill:rgb(83,212,212)"/><path d="M87.78483469125807,17.95200999526587L78.81716363531787,-2.5986603494507543L88.05749966980683,19.78597197205115z" style="fill:rgb(246,167,148)"/><path d="M79.36321771644234,-1.0455737009582668L-153.62106352873363,58.32251567803386L81.06090635462901,-0.9503852823376799z" style="fill:rgb(93,250,135)"/><path d="M87.75555564777625,17.812667186408845L78.44802524650682,-5.281844921880032L78.81716363531787,-2.5986603494507543z" style="fill:rgb(246,167,148)"/><path d="M88.84659291877115,20.788007386037958L-155.92054038165068,58.25880687497566L-159.29298133183164,82.03744822004167zM82.40345789311489,-8.407782121338103L-163.62069889651679,51.74129545917304L-163.99621077141893,54.249419225583424zM-164.27161664897187,77.04918650443761L81.6146073986901,-6.694316000169331L-161.02007583529493,54.91656357367335z" style="fill:rgb(83,212,212)"/><path d="M-151.35360348198427,86.41142952912514L128.05821173479032,14.401369393726661L-156.36022387646048,84.38139407919888z" style="fill:rgb(148,8,167)"/><path d="M88.05749966980683,19.78597197205115L78.81716363531787,-2.5986603494507543L78.81028773353502,-1.3040635666344562z" style="fill:rgb(246,167,148)"/><path d="M87.38862350657037,18.396365647991804L-158.418936959019,57.11372062901675L-161.72787725108353,80.05276646517399zM78.81716363531787,-2.5986603494507543L-154.05247833873798,85.31711579515192L81.51806359166515,27.446914843421567z" style="fill:rgb(83,212,212)"/><path d="M-148.77124537743953,86.3175428574926L107.52852200884696,23.944712855955625L111.09142867571619,22.632938987666318z" style="fill:rgb(155,4,143)"/><path d="M100.10806809460539,-3.7008647847805967L-163.99621077141893,54.249419225583424L-165.33778589236383,63.21009043528218zM79.36321771644234,-1.0455737009582668L-155.39524438633845,84.77266875887273L91.11185243762199,24.160403111024237z" style="fill:rgb(83,212,212)"/><path d="M-156.36022387646048,84.38139407919888L125.26709752833304,9.176722324003132L-161.62663258531484,80.17231338187229z" style="fill:rgb(140,16,189)"/><path d="M-155.92054038165068,58.25880687497566L88.84659291877115,20.788007386037958L82.03128380701995,-1.8793621386620298z" style="fill:rgb(83,212,212)"/><path d="M-151.35360348198427,86.41142952912514L111.09142867571619,22.632938987666318L129.83125713325816,17.462487796150246z" style="fill:rgb(155,4,143)"/><path d="M78.44802524650682,-5.281844921880032L81.97621093989744,27.902807630680954L79.93285152537649,1.2561611245708701zM81.06090635462901,-0.9503852823376799L-157.17157908713222,83.73293289521243L90.11108927447862,22.836092400027496z" style="fill:rgb(83,212,212)"/><path d="M99.76910958602552,31.783521017907454L58.68587787500301,-47.201623871850984L88.70231447508384,21.2565954479611z" style="fill:rgb(23,55,145)"/><path d="M78.81716363531787,-2.5986603494507543L81.51806359166515,27.446914843421567L79.43308192970908,0.11634038312799035zM-158.418936959019,57.11372062901675L87.38862350657037,18.396365647991804L82.22282724251396,-3.8142412006075657zM122.0911740863293,1.8111052638577227L-165.33778589236383,63.21009043528218L-166.9383213833949,73.90041243630827z" style="fill:rgb(83,212,212)"/><path d="M-161.62663258531484,80.17231338187229L122.0911740863293,1.8111052638577227L-166.9383213833949,73.90041243630827z" style="fill:rgb(131,29,208)"/><path d="M-163.62069889651679,51.74129545917304L82.40345789311489,-8.407782121338103L80.21921017143978,-10.416494957522453z" style="fill:rgb(83,212,212)"/><path d="M128.05821173479032,14.401369393726661L-151.35360348198427,86.41142952912514L129.83125713325816,17.462487796150246z" style="fill:rgb(148,8,167)"/><path d="M79.93285152537649,1.2561611245708701L92.2725463627863,25.374828246795573L91.08887357667403,11.693870886386826zM79.43308192970908,0.11634038312799035L91.83146436210345,24.91332797075766L90.59403907134667,10.548618653130525zM92.2725463627863,25.374828246795573L79.93285152537649,1.2561611245708701L81.97621093989744,27.902807630680954zM79.36321771644234,-1.0455737009582668L91.11185243762199,24.160403111024237L89.78812265944312,8.68339283145351zM-163.99621077141893,54.249419225583424L100.10806809460539,-3.7008647847805967L82.40345789311489,-8.407782121338103zM91.83146436210345,24.91332797075766L79.43308192970908,0.11634038312799035L81.51806359166515,27.446914843421567z" style="fill:rgb(83,212,212)"/><path d="M180.30930584243964,-16.47789384041792L156.30120178550578,-73.0901891323749L180.7110161456249,-1.4447070091609273z" style="fill:rgb(246,148,167)"/><path d="M81.6146073986901,-6.694316000169331L-164.27161664897187,77.04918650443761L85.72370271606839,14.94132236383676z" style="fill:rgb(83,212,212)"/><path d="M117.00218194313577,36.80461332114766L70.0374128855333,-37.02792808631804L99.76910958602552,31.783521017907454z" style="fill:rgb(57,36,182)"/><path d="M81.06090635462901,-0.9503852823376799L90.11108927447862,22.836092400027496L88.69892907915393,6.162542086621576z" style="fill:rgb(83,212,212)"/><path d="M125.26709752833304,9.176722324003132L-156.36022387646048,84.38139407919888L128.05821173479032,14.401369393726661z" style="fill:rgb(140,16,189)"/><path d="M91.08887357667403,11.693870886386826L109.04158960775058,21.257660037594615L108.55972252061913,16.562904192268896zM109.04158960775058,21.257660037594615L91.08887357667403,11.693870886386826L92.2725463627863,25.374828246795573zM90.59403907134667,10.548618653130525L108.62849521687437,20.786974210312735L108.07831786102793,15.408683538949456zM108.62849521687437,20.786974210312735L90.59403907134667,10.548618653130525L91.83146436210345,24.91332797075766zM82.03128380701995,-1.8793621386620298L88.84659291877115,20.788007386037958L87.36452762648058,3.0741954757256824zM89.78812265944312,8.68339283145351L107.95453149392331,20.019050941080433L107.29424498671216,13.528782543414287zM107.95453149392331,20.019050941080433L89.78812265944312,8.68339283145351L91.11185243762199,24.160403111024237zM61.183324208710175,-76.23685883208064L70.0374128855333,-37.02792808631804L74.00898010137247,-90.18663694467563zM-165.33778589236383,63.21009043528218L122.0911740863293,1.8111052638577227L100.10806809460539,-3.7008647847805967zM82.22282724251396,-3.8142412006075657L87.38862350657037,18.396365647991804L85.83237299818572,-0.47185163342495334zM88.69892907915393,6.162542086621576L107.0106361500637,18.674343195473895L106.23451632772525,10.98796049522391zM58.68587787500301,-47.201623871850984L61.183324208710175,-76.23685883208064L55.68632458431617,-61.08880377386134zM74.00898010137247,-90.18663694467563L88.06766230308675,-32.56904422742669L92.01108868883375,-100.78823310483341zM129.4986788445577,16.23499305789363L108.55972252061913,16.562904192268896L109.04158960775058,21.257660037594615zM107.0106361500637,18.674343195473895L88.69892907915393,6.162542086621576L90.11108927447862,22.836092400027496z" style="fill:rgb(83,212,212)"/><path d="M180.7110161456249,-1.4447070091609273L147.34062217473596,-57.281935910979385L172.57589761997642,14.05269959207809z" style="fill:rgb(231,109,199)"/><path d="M108.62849521687437,20.786974210312735L128.8558789027972,13.590711952905908L108.07831786102793,15.408683538949456zM108.55972252061913,16.562904192268896L129.4986788445577,16.23499305789363L129.3175635509635,14.756194949249092z" style="fill:rgb(83,212,212)"/><path d="M122.0911740863293,1.8111052638577227L-161.62663258531484,80.17231338187229L125.26709752833304,9.176722324003132z" style="fill:rgb(131,29,208)"/><path d="M58.68587787500301,-47.201623871850984L99.76910958602552,31.783521017907454L70.0374128855333,-37.02792808631804z" style="fill:rgb(23,55,145)"/><path d="M87.36452762648058,3.0741954757256824L105.80904661202077,16.601086835624265L104.93612402272623,7.874933691053595zM81.6146073986901,-6.694316000169331L85.72370271606839,14.94132236383676L84.15800319351763,-4.347034004139449z" style="fill:rgb(83,212,212)"/><path d="M109.65759349449564,-34.87368084989927L117.00218194313577,36.80461332114766L137.41283448398542,35.19201385865348z" style="fill:rgb(102,32,209)"/><path d="M105.80904661202077,16.601086835624265L87.36452762648058,3.0741954757256824L88.84659291877115,20.788007386037958zM92.01108868883375,-100.78823310483341L109.65759349449564,-34.87368084989927L112.37661422964293,-106.40958286222035zM128.50231153324359,14.966672429031776L107.29424498671216,13.528782543414287L107.95453149392331,20.019050941080433zM128.8558789027972,13.590711952905908L108.62849521687437,20.786974210312735L129.12005339940498,15.753024151402736z" style="fill:rgb(83,212,212)"/><path d="M128.05821173479032,14.401369393726661L129.83125713325816,17.462487796150246L130.3149848630994,17.274112138677275z" style="fill:rgb(148,8,167)"/><path d="M107.29424498671216,13.528782543414287L128.50231153324359,14.966672429031776L128.1039072512359,11.692421781551113z" style="fill:rgb(83,212,212)"/><path d="M156.30120178550578,-73.0901891323749L180.30930584243964,-16.47789384041792L156.22296828962575,-88.11198237293488z" style="fill:rgb(246,148,167)"/><path d="M85.83237299818572,-0.47185163342495334L104.42284411119624,14.180392539332708L103.44519363836947,4.300258779795029z" style="fill:rgb(83,212,212)"/><path d="M172.57589761997642,14.05269959207809L130.76655044073595,-43.661627152721586L157.19594899406428,27.105112901324922z" style="fill:rgb(197,72,218)"/><path d="M127.62845497089279,13.596912367026482L106.23451632772525,10.98796049522391L107.0106361500637,18.674343195473895z" style="fill:rgb(83,212,212)"/><path d="M130.76655044073595,-43.661627152721586L137.41283448398542,35.19201385865348L157.19594899406428,27.105112901324922z" style="fill:rgb(152,45,222)"/><path d="M106.23451632772525,10.98796049522391L127.62845497089279,13.596912367026482L127.08751992588377,9.126660060078711zM104.42284411119624,14.180392539332708L85.83237299818572,-0.47185163342495334L87.38862350657037,18.396365647991804zM105.80904661202077,16.601086835624265L125.8421965266798,5.982936622101028L104.93612402272623,7.874933691053595zM112.37661422964293,-106.40958286222035L130.76655044073595,-43.661627152721586L131.93315194236612,-106.09584699234655zM61.183324208710175,-76.23685883208064L58.68587787500301,-47.201623871850984L70.0374128855333,-37.02792808631804zM84.15800319351763,-4.347034004139449L102.82262197051247,10.693334409203393L101.8157266655778,0.3934361845185726z" style="fill:rgb(83,212,212)"/><path d="M130.3149848630994,17.274112138677275L125.26709752833304,9.176722324003132L128.05821173479032,14.401369393726661z" style="fill:rgb(247,158,158)"/><path d="M102.82262197051247,10.693334409203393L84.15800319351763,-4.347034004139449L85.72370271606839,14.94132236383676zM104.42284411119624,14.180392539332708L124.41211024372633,2.372825752722155L103.44519363836947,4.300258779795029zM125.8421965266798,5.982936622101028L105.80904661202077,16.601086835624265L126.50437693083508,11.492763375907536z" style="fill:rgb(83,212,212)"/><path d="M70.0374128855333,-37.02792808631804L117.00218194313577,36.80461332114766L88.06766230308675,-32.56904422742669z" style="fill:rgb(57,36,182)"/><path d="M131.93315194236612,-106.09584699234655L147.34062217473596,-57.281935910979385L147.48114032803267,-99.71999130139416zM74.00898010137247,-90.18663694467563L70.0374128855333,-37.02792808631804L88.06766230308675,-32.56904422742669z" style="fill:rgb(83,212,212)"/><path d="M130.3149848630994,17.274112138677275L122.0911740863293,1.8111052638577227L125.26709752833304,9.176722324003132z" style="fill:rgb(247,158,158)"/><path d="M124.41211024372633,2.372825752722155L104.42284411119624,14.180392539332708L125.20658899228864,9.036408479522159z" style="fill:rgb(83,212,212)"/><path d="M122.0911740863293,1.8111052638577227L130.3149848630994,17.274112138677275L121.21090379789979,-5.7083405856521505z" style="fill:rgb(247,158,158)"/><path d="M101.8157266655778,0.3934361845185726L123.6861157569156,5.510090638811733L122.8490703123618,-1.5729548218492533z" style="fill:rgb(83,212,212)"/><path d="M147.34062217473596,-57.281935910979385L180.7110161456249,-1.4447070091609273L156.30120178550578,-73.0901891323749z" style="fill:rgb(231,109,199)"/><path d="M123.6861157569156,5.510090638811733L101.8157266655778,0.3934361845185726L102.82262197051247,10.693334409203393zM147.48114032803267,-99.71999130139416L156.30120178550578,-73.0901891323749L156.22296828962575,-88.11198237293488zM100.10806809460539,-3.7008647847805967L122.0911740863293,1.8111052638577227L121.21090379789979,-5.7083405856521505z" style="fill:rgb(83,212,212)"/><path d="M117.00218194313577,36.80461332114766L109.65759349449564,-34.87368084989927L88.06766230308675,-32.56904422742669z" style="fill:rgb(102,32,209)"/><path d="M92.01108868883375,-100.78823310483341L88.06766230308675,-32.56904422742669L109.65759349449564,-34.87368084989927z" style="fill:rgb(83,212,212)"/><path d="M130.76655044073595,-43.661627152721586L172.57589761997642,14.05269959207809L147.34062217473596,-57.281935910979385z" style="fill:rgb(197,72,218)"/><path d="M112.37661422964293,-106.40958286222035L109.65759349449564,-34.87368084989927L130.76655044073595,-43.661627152721586z" style="fill:rgb(83,212,212)"/><path d="M137.41283448398542,35.19201385865348L130.76655044073595,-43.661627152721586L109.65759349449564,-34.87368084989927z" style="fill:rgb(152,45,222)"/><path d="M147.48114032803267,-99.71999130139416L147.34062217473596,-57.281935910979385L156.30120178550578,-73.0901891323749zM131.93315194236612,-106.09584699234655L130.76655044073595,-43.661627152721586L147.34062217473596,-57.281935910979385z" style="fill:rgb(83,212,212)"/></svg>
