<?xml version="1.0" encoding="UTF-8"?>
<!-- Generated by jsxcad -->
<!DOCTYPE svg PUBLIC "-//W3C//DTD SVG 1.1 Tiny//EN" "http://www.w3.org/Graphics/SVG/1.1/DTD/svg11-tiny.dtd">
<svg viewBox="-250 -250 500 500" width="500" height="500" xmlns="http://www.w3.org/2000/svg"><path d="M-29.18702244748644,-61.40349693035659L15.276583277515824,34.44376140554519L13.860428655163089,22.593247542068077z" style="fill:rgb(246,167,148)"/><path d="M28.200884576596483,48.84598155213935L-27.60303514915201,-48.477277721328434L15.888072719886809,35.62626520590424z" style="fill:rgb(23,55,145)"/><path d="M15.276583277515824,34.44376140554519L-29.18702244748644,-61.40349693035659L-27.60303514915201,-48.477277721328434z" style="fill:rgb(246,167,148)"/><path d="M127.75578365821319,-10.617160119670176L92.17844060858641,-80.96461501920582L127.36723800280022,8.02233850013017z" style="fill:rgb(246,148,167)"/><path d="M48.38710970966994,55.305930670891776L-15.091417592895919,-35.77593520066526L28.200884576596483,48.84598155213935z" style="fill:rgb(57,36,182)"/><path d="M-21.61741699963938,-84.37530490345294L-15.091417592895919,-35.77593520066526L-5.014567943872092,-101.53840612201664zM-27.60303514915201,-48.477277721328434L-21.61741699963938,-84.37530490345294L-29.712803722541175,-65.69414279399727zM-5.014567943872092,-101.53840612201664L6.126434339853162,-30.1590018895133L17.35485281675137,-114.61534299907541z" style="fill:rgb(83,212,212)"/><path d="M127.36723800280022,8.02233850013017L80.05595041387792,-61.202112012533085L116.65202263559377,27.297295359984492z" style="fill:rgb(231,109,199)"/><path d="M-27.60303514915201,-48.477277721328434L28.200884576596483,48.84598155213935L-15.091417592895919,-35.77593520066526z" style="fill:rgb(23,55,145)"/><path d="M32.41972371286256,-33.032309902161124L48.38710970966994,55.305930670891776L72.97174410257394,53.4899713164456z" style="fill:rgb(102,32,209)"/><path d="M17.35485281675137,-114.61534299907541L32.41972371286256,-33.032309902161124L42.08665511501685,-121.6514328519523z" style="fill:rgb(83,212,212)"/><path d="M92.17844060858641,-80.96461501920582L127.75578365821319,-10.617160119670176L93.23115726991851,-99.58369976671082z" style="fill:rgb(246,148,167)"/><path d="M116.65202263559377,27.297295359984492L58.792824565864144,-44.08633082460784L97.30818473928593,43.52358566692127z" style="fill:rgb(197,72,218)"/><path d="M58.792824565864144,-44.08633082460784L72.97174410257394,53.4899713164456L97.30818473928593,43.52358566692127z" style="fill:rgb(152,45,222)"/><path d="M30.696987451975936,-62.69701058547579L-89.52688281727151,-44.83740595105315L-92.05904567373766,-29.45084904204789z" style="fill:rgb(84,220,202)"/><path d="M-21.61741699963938,-84.37530490345294L-27.60303514915201,-48.477277721328434L-15.091417592895919,-35.77593520066526zM42.08665511501685,-121.6514328519523L58.792824565864144,-44.08633082460784L65.42108262782472,-121.46007254329027z" style="fill:rgb(83,212,212)"/><path d="M-89.52688281727151,-44.83740595105315L30.696987451975936,-62.69701058547579L30.97611339958288,-77.92106287380294z" style="fill:rgb(84,220,202)"/><path d="M65.42108262782472,-121.46007254329027L80.05595041387792,-61.202112012533085L83.57731954216572,-113.80220621575283z" style="fill:rgb(83,212,212)"/><path d="M-15.091417592895919,-35.77593520066526L48.38710970966994,55.305930670891776L6.126434339853162,-30.1590018895133z" style="fill:rgb(57,36,182)"/><path d="M-5.014567943872092,-101.53840612201664L-15.091417592895919,-35.77593520066526L6.126434339853162,-30.1590018895133z" style="fill:rgb(83,212,212)"/><path d="M80.05595041387792,-61.202112012533085L127.36723800280022,8.02233850013017L92.17844060858641,-80.96461501920582z" style="fill:rgb(231,109,199)"/><path d="M83.57731954216572,-113.80220621575283L92.17844060858641,-80.96461501920582L93.23115726991851,-99.58369976671082z" style="fill:rgb(83,212,212)"/><path d="M48.38710970966994,55.305930670891776L32.41972371286256,-33.032309902161124L6.126434339853162,-30.1590018895133z" style="fill:rgb(102,32,209)"/><path d="M17.35485281675137,-114.61534299907541L6.126434339853162,-30.1590018895133L32.41972371286256,-33.032309902161124z" style="fill:rgb(83,212,212)"/><path d="M28.723845547992056,-51.14110096982909L-92.05904567373766,-29.45084904204789L-96.63341379542129,-17.529479486801137zM-92.05904567373766,-29.45084904204789L28.723845547992056,-51.14110096982909L30.696987451975936,-62.69701058547579z" style="fill:rgb(85,234,182)"/><path d="M58.792824565864144,-44.08633082460784L116.65202263559377,27.297295359984492L80.05595041387792,-61.202112012533085z" style="fill:rgb(197,72,218)"/><path d="M42.08665511501685,-121.6514328519523L32.41972371286256,-33.032309902161124L58.792824565864144,-44.08633082460784z" style="fill:rgb(83,212,212)"/><path d="M72.97174410257394,53.4899713164456L58.792824565864144,-44.08633082460784L32.41972371286256,-33.032309902161124z" style="fill:rgb(152,45,222)"/><path d="M83.57731954216572,-113.80220621575283L80.05595041387792,-61.202112012533085L92.17844060858641,-80.96461501920582zM65.42108262782472,-121.46007254329027L58.792824565864144,-44.08633082460784L80.05595041387792,-61.202112012533085z" style="fill:rgb(83,212,212)"/><path d="M-103.23175526862688,-9.698644226346262L28.723845547992056,-51.14110096982909L-96.63341379542129,-17.529479486801137zM28.723845547992056,-51.14110096982909L-103.23175526862688,-9.698644226346262L25.00713803197994,-43.88577814808342z" style="fill:rgb(89,244,159)"/><path d="M70.28114116310448,47.74926485560816L36.58831434716501,96.58912788005092L68.8090389802028,66.73633524687371z" style="fill:rgb(247,158,158)"/><path d="M-111.76352176532102,-6.5374236302103075L25.00713803197994,-43.88577814808342L-103.23175526862688,-9.698644226346262z" style="fill:rgb(93,250,135)"/><path d="M-92.05904567373766,-29.45084904204789L35.67665064201773,96.02217117863364L30.696987451975936,-62.69701058547579z" style="fill:rgb(83,212,212)"/><path d="M36.58831434716501,96.58912788005092L70.28114116310448,47.74926485560816L32.41972371286256,-33.032309902161124zM30.696987451975936,-62.69701058547579L36.58831434716501,96.58912788005092L30.97611339958288,-77.92106287380294zM68.8090389802028,66.73633524687371L36.58831434716501,96.58912788005092L63.47030554662235,86.6428225990132z" style="fill:rgb(247,158,158)"/><path d="M25.00713803197994,-43.88577814808342L-111.76352176532102,-6.5374236302103075L19.549497542307023,-41.51449531970066z" style="fill:rgb(93,250,135)"/><path d="M28.723845547992056,-51.14110096982909L35.67665064201773,96.02217117863364L30.696987451975936,-62.69701058547579z" style="fill:rgb(247,158,158)"/><path d="M-96.63341379542129,-17.529479486801137L32.9444435111597,94.32302908937014L28.723845547992056,-51.14110096982909zM-116.74727583970028,125.33878908207133L25.00713803197994,-43.88577814808342L-103.23175526862688,-9.698644226346262z" style="fill:rgb(83,212,212)"/><path d="M54.53258365246281,98.27159442408937L-97.8723876262987,131.96694839076244L-78.4474538289665,128.85783951775787z" style="fill:rgb(155,4,143)"/><path d="M25.00713803197994,-43.88577814808342L32.9444435111597,94.32302908937014L28.723845547992056,-51.14110096982909zM63.47030554662235,86.6428225990132L41.75672414552198,99.80332739346375L54.53258365246281,98.27159442408937z" style="fill:rgb(247,158,158)"/><path d="M35.67665064201773,96.02217117863364L-92.05904567373766,-29.45084904204789L-106.47283196736454,128.94678496342107zM-125.49182884116675,120.54359494776598L19.549497542307023,-41.51449531970066L-111.76352176532102,-6.5374236302103075zM32.9444435111597,94.32302908937014L-96.63341379542129,-17.529479486801137L-110.33374638527532,127.5909845959152z" style="fill:rgb(83,212,212)"/><path d="M19.549497542307023,-41.51449531970066L28.402104276263874,91.49817695617138L25.00713803197994,-43.88577814808342z" style="fill:rgb(247,158,158)"/><path d="M-97.8723876262987,131.96694839076244L54.53258365246281,98.27159442408937L41.75672414552198,99.80332739346375z" style="fill:rgb(155,4,143)"/><path d="M36.58831434716501,96.58912788005092L30.696987451975936,-62.69701058547579L35.67665064201773,96.02217117863364zM63.47030554662235,86.6428225990132L36.58831434716501,96.58912788005092L41.75672414552198,99.80332739346375zM35.67665064201773,96.02217117863364L28.723845547992056,-51.14110096982909L32.9444435111597,94.32302908937014z" style="fill:rgb(247,158,158)"/><path d="M25.00713803197994,-43.88577814808342L-116.74727583970028,125.33878908207133L28.402104276263874,91.49817695617138zM-122.0457052900689,-8.528375677306098L13.932330178589906,76.42379103186175L12.42467215818487,-44.5085161523678z" style="fill:rgb(83,212,212)"/><path d="M32.9444435111597,94.32302908937014L25.00713803197994,-43.88577814808342L28.402104276263874,91.49817695617138zM13.932330178589906,76.42379103186175L19.549497542307023,-41.51449531970066L12.42467215818487,-44.5085161523678z" style="fill:rgb(247,158,158)"/><path d="M25.069996711144153,89.42595980932333L-97.8723876262987,131.96694839076244L41.75672414552198,99.80332739346375z" style="fill:rgb(148,8,167)"/><path d="M19.549497542307023,-41.51449531970066L-125.49182884116675,120.54359494776598L22.041184592188525,85.89010983596673z" style="fill:rgb(83,212,212)"/><path d="M-97.8723876262987,131.96694839076244L25.069996711144153,89.42595980932333L-121.44781205546111,123.68814518659468z" style="fill:rgb(148,8,167)"/><path d="M28.402104276263874,91.49817695617138L19.549497542307023,-41.51449531970066L22.041184592188525,85.89010983596673z" style="fill:rgb(247,158,158)"/><path d="M-133.78453636178327,-15.992315073361171L4.250743328966632,64.92674598988089L3.7968444205754657,-53.17776041248816zM13.932330178589906,76.42379103186175L-122.0457052900689,-8.528375677306098L-136.30724022415546,112.13375264046388z" style="fill:rgb(83,212,212)"/><path d="M4.250743328966632,64.92674598988089L12.42467215818487,-44.5085161523678L3.7968444205754657,-53.17776041248816zM19.549497542307023,-41.51449531970066L13.932330178589906,76.42379103186175L22.041184592188525,85.89010983596673z" style="fill:rgb(247,158,158)"/><path d="M-146.56402693117033,-29.013699624698496L-6.777603578213427,47.063880658007086L-6.063547388780984,-67.58166753615144zM4.250743328966632,64.92674598988089L-133.78453636178327,-15.992315073361171L-149.17223431689675,101.91596540118691z" style="fill:rgb(83,212,212)"/><path d="M-6.777603578213427,47.063880658007086L3.7968444205754657,-53.17776041248816L-6.063547388780984,-67.58166753615144zM28.402104276263874,91.49817695617138L22.041184592188525,85.89010983596673L25.069996711144153,89.42595980932333z" style="fill:rgb(247,158,158)"/><path d="M-178.36705360238736,67.76739686203167L-16.77284977461063,-87.45224317208228L-159.8472330468632,-47.36784838420404z" style="fill:rgb(83,212,212)"/><path d="M12.42467215818487,-44.5085161523678L4.250743328966632,64.92674598988089L13.932330178589906,76.42379103186175z" style="fill:rgb(247,158,158)"/><path d="M4.681228546898152,65.62401543184683L-121.44781205546111,123.68814518659468L25.069996711144153,89.42595980932333zM-121.44781205546111,123.68814518659468L4.681228546898152,65.62401543184683L-148.62590280730416,102.55499653961527z" style="fill:rgb(140,16,189)"/><path d="M-6.777603578213427,47.063880658007086L-146.56402693117033,-29.013699624698496L-163.15559223783586,85.55993116968797z" style="fill:rgb(83,212,212)"/><path d="M-18.79630993479342,27.596906388921056L-6.063547388780984,-67.58166753615144L-16.77284977461063,-87.45224317208228zM3.7968444205754657,-53.17776041248816L-6.777603578213427,47.063880658007086L4.250743328966632,64.92674598988089zM13.932330178589906,76.42379103186175L4.250743328966632,64.92674598988089L4.681228546898152,65.62401543184683zM-6.063547388780984,-67.58166753615144L-18.79630993479342,27.596906388921056L-6.777603578213427,47.063880658007086z" style="fill:rgb(247,158,158)"/><path d="M-16.77284977461063,-87.45224317208228L-178.36705360238736,67.76739686203167L-18.79630993479342,27.596906388921056z" style="fill:rgb(83,212,212)"/><path d="M-18.79630993479342,27.596906388921056L-148.62590280730416,102.55499653961527L4.681228546898152,65.62401543184683zM-148.62590280730416,102.55499653961527L-18.79630993479342,27.596906388921056L-178.36705360238736,67.76739686203167z" style="fill:rgb(131,29,208)"/></svg>
