<?xml version="1.0" encoding="UTF-8"?>
<!-- Generated by jsxcad -->
<!DOCTYPE svg PUBLIC "-//W3C//DTD SVG 1.1 Tiny//EN" "http://www.w3.org/Graphics/SVG/1.1/DTD/svg11-tiny.dtd">
<svg viewBox="-250 -250 500 500" width="500" height="500" xmlns="http://www.w3.org/2000/svg"><path d="M157.6462012945171,31.439214264242842L-61.807201598300615,77.18430569630169L-62.62414386479033,84.36175948768677z" style="fill:rgb(84,220,202)"/><path d="M158.00190428881612,37.04378257346607L-62.62414386479033,84.36175948768677L-64.20204995465713,90.13017982815664z" style="fill:rgb(85,234,182)"/><path d="M-66.5032168577741,94.24288430909174L158.00190428881612,37.04378257346607L-64.20204995465713,90.13017982815664z" style="fill:rgb(89,244,159)"/><path d="M-61.807201598300615,77.18430569630169L157.6462012945171,31.439214264242842L156.75078573859167,24.290263227823605z" style="fill:rgb(84,220,202)"/><path d="M-65.86048736385007,119.35202896792606L158.00190428881612,37.04378257346607L-64.20204995465713,90.13017982815664z" style="fill:rgb(83,212,212)"/><path d="M-62.62414386479033,84.36175948768677L158.00190428881612,37.04378257346607L157.6462012945171,31.439214264242842z" style="fill:rgb(85,234,182)"/><path d="M162.80044488329574,66.50643883968159L-62.62414386479033,84.36175948768677L-64.5610466076197,119.1717008371613z" style="fill:rgb(83,212,212)"/><path d="M-69.4618508791655,96.49888452600152L157.7901670859754,40.8580897640243L-66.5032168577741,94.24288430909174z" style="fill:rgb(93,250,135)"/><path d="M157.6462012945171,31.439214264242842L162.38198819692593,39.39229791000452L156.75078573859167,24.290263227823605z" style="fill:rgb(247,158,158)"/><path d="M-62.62414386479033,84.36175948768677L162.80044488329574,66.50643883968159L157.6462012945171,31.439214264242842z" style="fill:rgb(83,212,212)"/><path d="M158.00190428881612,37.04378257346607L-66.5032168577741,94.24288430909174L157.7901670859754,40.8580897640243z" style="fill:rgb(89,244,159)"/><path d="M163.0483084834399,66.5144750015892L-68.87029884844793,119.76971485721155L-63.89420016331718,119.0791570418203z" style="fill:rgb(155,4,143)"/><path d="M161.52456872737022,66.46506198119054L-66.5032168577741,94.24288430909174L-67.9912952766164,119.647731960397zM-70.83410419541651,118.9730370878277L157.00196078830675,42.68586354119025L-69.4618508791655,96.49888452600152z" style="fill:rgb(83,212,212)"/><path d="M162.38198819692593,39.39229791000452L162.80044488329574,66.50643883968159L163.71021732476254,49.65800873829959zM162.38198819692593,39.39229791000452L157.6462012945171,31.439214264242842L162.80044488329574,66.50643883968159zM163.71021732476254,49.65800873829959L162.80044488329574,66.50643883968159L164.293263330369,57.83862484477206z" style="fill:rgb(247,158,158)"/><path d="M157.7901670859754,40.8580897640243L-69.4618508791655,96.49888452600152L157.00196078830675,42.68586354119025z" style="fill:rgb(93,250,135)"/><path d="M158.00190428881612,37.04378257346607L-65.86048736385007,119.35202896792606L162.3172927407269,66.49076974729768zM-66.5032168577741,94.24288430909174L161.52456872737022,66.46506198119054L157.7901670859754,40.8580897640243z" style="fill:rgb(83,212,212)"/><path d="M158.00190428881612,37.04378257346607L162.80044488329574,66.50643883968159L157.6462012945171,31.439214264242842z" style="fill:rgb(247,158,158)"/><path d="M158.6623957457678,63.36615721549897L-72.98310374703365,96.7562865489552L-74.31744688358047,117.5599175701419z" style="fill:rgb(83,212,212)"/><path d="M164.293263330369,57.83862484477206L162.80044488329574,66.50643883968159L164.0813294132589,63.563036560247696z" style="fill:rgb(247,158,158)"/><path d="M-68.87029884844793,119.76971485721155L158.56647663300203,63.24930556299234L-74.52338137177607,117.47637661497065z" style="fill:rgb(148,8,167)"/><path d="M157.7901670859754,40.8580897640243L162.3172927407269,66.49076974729768L158.00190428881612,37.04378257346607z" style="fill:rgb(247,158,158)"/><path d="M-68.87029884844793,119.76971485721155L163.0483084834399,66.5144750015892L161.1973883134998,66.45445494133904z" style="fill:rgb(155,4,143)"/><path d="M156.53665796615982,59.38175155204806L-76.94366679780653,94.94568941229306L-78.25085885669523,114.24619578923262zM157.00196078830675,42.68586354119025L-70.83410419541651,118.9730370878277L160.28392089587965,65.34161099033348z" style="fill:rgb(83,212,212)"/><path d="M162.80044488329574,66.50643883968159L158.00190428881612,37.04378257346607L162.3172927407269,66.49076974729768zM164.0813294132589,63.563036560247696L162.80044488329574,66.50643883968159L163.0483084834399,66.5144750015892z" style="fill:rgb(247,158,158)"/><path d="M-72.98310374703365,96.7562865489552L158.6623957457678,63.36615721549897L155.6497550558379,42.39452133169493z" style="fill:rgb(83,212,212)"/><path d="M157.00196078830675,42.68586354119025L161.52456872737022,66.46506198119054L157.7901670859754,40.8580897640243z" style="fill:rgb(247,158,158)"/><path d="M-74.52338137177607,117.47637661497065L155.2323175120659,56.89652101307627L-80.64428791451158,112.17208852616251z" style="fill:rgb(140,16,189)"/><path d="M158.56647663300203,63.24930556299234L-68.87029884844793,119.76971485721155L161.1973883134998,66.45445494133904z" style="fill:rgb(148,8,167)"/><path d="M162.3172927407269,66.49076974729768L157.7901670859754,40.8580897640243L161.52456872737022,66.46506198119054z" style="fill:rgb(247,158,158)"/><path d="M154.06602249934718,54.11466585279894L-81.19426606744187,91.0820505411352L-82.53167434832028,109.73129827398455zM-76.94366679780653,94.94568941229306L156.53665796615982,59.38175155204806L153.76970586707193,39.92927170317594z" style="fill:rgb(83,212,212)"/><path d="M161.52456872737022,66.46506198119054L157.00196078830675,42.68586354119025L160.28392089587965,65.34161099033348z" style="fill:rgb(247,158,158)"/><path d="M151.31233732120606,47.54655490235386L-85.56448359030759,85.27320239509096L-86.98493152112381,103.97229501719606z" style="fill:rgb(83,212,212)"/><path d="M-80.64428791451158,112.17208852616251L151.31233732120606,47.54655490235386L-86.98493152112381,103.97229501719606z" style="fill:rgb(131,29,208)"/><path d="M158.6623957457678,63.36615721549897L157.00196078830675,42.68586354119025L155.6497550558379,42.39452133169493z" style="fill:rgb(247,158,158)"/><path d="M155.2323175120659,56.89652101307627L-74.52338137177607,117.47637661497065L158.56647663300203,63.24930556299234z" style="fill:rgb(140,16,189)"/><path d="M161.52456872737022,66.46506198119054L160.28392089587965,65.34161099033348L161.1973883134998,66.45445494133904zM157.00196078830675,42.68586354119025L158.6623957457678,63.36615721549897L160.28392089587965,65.34161099033348z" style="fill:rgb(247,158,158)"/><path d="M-81.19426606744187,91.0820505411352L154.06602249934718,54.11466585279894L151.42295684033812,35.32552363665088z" style="fill:rgb(83,212,212)"/><path d="M156.53665796615982,59.38175155204806L155.6497550558379,42.39452133169493L153.76970586707193,39.92927170317594z" style="fill:rgb(247,158,158)"/><path d="M-85.56448359030759,85.27320239509096L151.31233732120606,47.54655490235386L148.6952982613989,28.71745966588393z" style="fill:rgb(83,212,212)"/><path d="M155.6497550558379,42.39452133169493L156.53665796615982,59.38175155204806L158.6623957457678,63.36615721549897z" style="fill:rgb(247,158,158)"/><path d="M151.31233732120606,47.54655490235386L-80.64428791451158,112.17208852616251L155.2323175120659,56.89652101307627z" style="fill:rgb(131,29,208)"/><path d="M154.06602249934718,54.11466585279894L153.76970586707193,39.92927170317594L151.42295684033812,35.32552363665088zM158.6623957457678,63.36615721549897L156.53665796615982,59.38175155204806L158.56647663300203,63.24930556299234zM153.76970586707193,39.92927170317594L154.06602249934718,54.11466585279894L156.53665796615982,59.38175155204806zM151.31233732120606,47.54655490235386L151.42295684033812,35.32552363665088L148.6952982613989,28.71745966588393zM156.53665796615982,59.38175155204806L154.06602249934718,54.11466585279894L155.2323175120659,56.89652101307627zM151.42295684033812,35.32552363665088L151.31233732120606,47.54655490235386L154.06602249934718,54.11466585279894zM24.933940831199624,-177.23178135814715L111.56811876143236,76.89949457368061L105.34097473001687,14.49773147468028z" style="fill:rgb(247,158,158)"/><path d="M26.702568002292768,-115.95425017091728L29.181643815742387,96.01244093092899L111.56811876143236,76.89949457368061z" style="fill:rgb(127,37,217)"/><path d="M111.56811876143236,76.89949457368061L24.933940831199624,-177.23178135814715L26.702568002292768,-115.95425017091728z" style="fill:rgb(247,158,158)"/><path d="M29.181643815742387,96.01244093092899L26.702568002292768,-115.95425017091728L-69.75521149994032,-88.5436701274712z" style="fill:rgb(127,37,217)"/><path d="M-69.75521149994032,-88.5436701274712L24.933940831199624,-177.23178135814715L-65.23734493704126,-150.23938777242822zM24.933940831199624,-177.23178135814715L-69.75521149994032,-88.5436701274712L26.702568002292768,-115.95425017091728z" style="fill:rgb(83,212,212)"/></svg>
